# xmcd CD database file
#
# Track frame offsets:
#	150
#	19900
#	36661
#	57832
#	86617
#	104453
#	143710
#	153965
#	170679
#	185758
#	208910
#	232859
#	255890
#	279838
#	308079
#
# Disc length: 4594 seconds
#
# Revision: 0
# Processed by: cddbd v1.5.2PL0 Copyright (c) Steve Scherf et al.
# Submitted via: CDex 1.70beta2
#
DISCID=ca11f00f
DTITLE=Peter Ind e.a. - 9 Classic Albums
DYEAR=2013
DGENRE=Jazz
TTITLE0=My Heart Stood Still
TTITLE1=Straightaway
TTITLE2=Foolin' Myself
TTITLE3=You Go to My Head
TTITLE4=Melancholy Baby
TTITLE5=Pennies in Minor
TTITLE6=Sweet and Lovely
TTITLE7=Easy Living
TTITLE8=Midway
TTITLE9=All of Me
TTITLE10=Star Eyes
TTITLE11=Nesuhi's Instant
TTITLE12=Indiana
TTITLE13=Lover Come Back to Me
TTITLE14=Topsy
EXTD=YEAR: 2013
EXTT0=
EXTT1=
EXTT2=
EXTT3=
EXTT4=
EXTT5=
EXTT6=
EXTT7=
EXTT8=
EXTT9=
EXTT10=
EXTT11=
EXTT12=
EXTT13=
EXTT14=
PLAYORDER=
